<svg xmlns="http://www.w3.org/2000/svg" fill="none" viewBox="0 0 100 101"><g fill="#FCA253" clip-path="url(#a)"><path d="M95.302 0H57.66a4.698 4.698 0 0 0-4.697 4.698V42.34a4.698 4.698 0 0 0 4.697 4.697h37.643A4.698 4.698 0 0 0 100 42.341V4.698A4.698 4.698 0 0 0 95.302 0Z"/><path d="M42.108 49.861V13.408a5.707 5.707 0 0 0-1.674-4.04 5.714 5.714 0 0 0-8.08 0L3.167 38.561a10.819 10.819 0 0 0 0 15.295L46.37 97.052a10.818 10.818 0 0 0 15.295 0l29.187-29.187a5.714 5.714 0 0 0 0-8.08l-.223-.22a5.708 5.708 0 0 0-4.04-1.673H50.139a8.025 8.025 0 0 1-8.031-8.031Z"/></g><defs><clipPath id="a"><path fill="#fff" d="M0 0h100v100.219H0z"/></clipPath></defs></svg>